<mxfile host="app.diagrams.net" modified="2020-10-19T01:55:05.755Z" agent="5.0 (Windows NT 6.1; Win64; x64) AppleWebKit/537.36 (KHTML, like Gecko) Chrome/86.0.4240.75 Safari/537.36" etag="KVej5e33kwZsiSHglAVX" version="13.8.0" type="github">
  <diagram name="Page-1" id="e3a06f82-3646-2815-327d-82caf3d4e204">
    <mxGraphModel dx="2031" dy="1134" grid="1" gridSize="10" guides="1" tooltips="1" connect="1" arrows="1" fold="1" page="1" pageScale="1.5" pageWidth="1169" pageHeight="826" background="none" math="0" shadow="0">
      <root>
        <mxCell id="0" style=";html=1;" />
        <mxCell id="1" style=";html=1;" parent="0" />
        <mxCell id="p6bUg2uWIaqTIdtSCgMk-10" style="edgeStyle=none;rounded=0;orthogonalLoop=1;jettySize=auto;html=1;exitX=1;exitY=0.5;exitDx=0;exitDy=0;entryX=0;entryY=0.471;entryDx=0;entryDy=0;entryPerimeter=0;" edge="1" parent="1" source="6a7d8f32e03d9370-58" target="p6bUg2uWIaqTIdtSCgMk-4">
          <mxGeometry relative="1" as="geometry" />
        </mxCell>
        <mxCell id="6a7d8f32e03d9370-58" value="用户端" style="whiteSpace=wrap;html=1;fillColor=#dae8fc;fontSize=14;strokeColor=none;verticalAlign=top;" parent="1" vertex="1">
          <mxGeometry x="10" y="520" width="220" height="210" as="geometry" />
        </mxCell>
        <mxCell id="6a7d8f32e03d9370-6" value="Client" style="verticalLabelPosition=bottom;aspect=fixed;html=1;verticalAlign=top;strokeColor=none;shape=mxgraph.citrix.pda;fillColor=#66B2FF;gradientColor=#0066CC;fontSize=14;" parent="1" vertex="1">
          <mxGeometry x="105.00000000000006" y="628.25" width="30" height="61" as="geometry" />
        </mxCell>
        <mxCell id="6a7d8f32e03d9370-62" value="Citrix Network Architecture" style="text;strokeColor=none;fillColor=none;html=1;fontSize=24;fontStyle=1;verticalAlign=middle;align=center;" parent="1" vertex="1">
          <mxGeometry x="499" y="30" width="861" height="40" as="geometry" />
        </mxCell>
        <mxCell id="p6bUg2uWIaqTIdtSCgMk-41" value="" style="edgeStyle=none;rounded=0;orthogonalLoop=1;jettySize=auto;html=1;strokeColor=#000000;fontSize=24;" edge="1" parent="1" source="p6bUg2uWIaqTIdtSCgMk-4" target="p6bUg2uWIaqTIdtSCgMk-27">
          <mxGeometry relative="1" as="geometry" />
        </mxCell>
        <mxCell id="p6bUg2uWIaqTIdtSCgMk-4" value="" style="whiteSpace=wrap;html=1;aspect=fixed;fillColor=#d5e8d4;strokeColor=#82b366;" vertex="1" parent="1">
          <mxGeometry x="360" y="506.5" width="260" height="260" as="geometry" />
        </mxCell>
        <mxCell id="p6bUg2uWIaqTIdtSCgMk-5" value="" style="verticalLabelPosition=bottom;aspect=fixed;html=1;verticalAlign=top;strokeColor=none;align=center;outlineConnect=0;shape=mxgraph.citrix.users;" vertex="1" parent="1">
          <mxGeometry x="87.75" y="550" width="64.5" height="55" as="geometry" />
        </mxCell>
        <mxCell id="p6bUg2uWIaqTIdtSCgMk-6" value="" style="verticalLabelPosition=bottom;aspect=fixed;html=1;verticalAlign=top;strokeColor=none;align=center;outlineConnect=0;shape=mxgraph.citrix.router;" vertex="1" parent="1">
          <mxGeometry x="462.5" y="618.25" width="55" height="36.5" as="geometry" />
        </mxCell>
        <mxCell id="p6bUg2uWIaqTIdtSCgMk-14" value="" style="rounded=0;orthogonalLoop=1;jettySize=auto;html=1;" edge="1" parent="1" source="p6bUg2uWIaqTIdtSCgMk-8" target="p6bUg2uWIaqTIdtSCgMk-4">
          <mxGeometry relative="1" as="geometry" />
        </mxCell>
        <mxCell id="p6bUg2uWIaqTIdtSCgMk-15" value="" style="edgeStyle=none;rounded=0;orthogonalLoop=1;jettySize=auto;html=1;shape=link;" edge="1" parent="1" source="p6bUg2uWIaqTIdtSCgMk-8" target="p6bUg2uWIaqTIdtSCgMk-4">
          <mxGeometry relative="1" as="geometry" />
        </mxCell>
        <mxCell id="p6bUg2uWIaqTIdtSCgMk-8" value="" style="shape=ext;double=1;rounded=0;whiteSpace=wrap;html=1;fillColor=#fff2cc;strokeColor=#d6b656;" vertex="1" parent="1">
          <mxGeometry x="380" y="140" width="210" height="180" as="geometry" />
        </mxCell>
        <mxCell id="p6bUg2uWIaqTIdtSCgMk-17" value="授权" style="text;strokeColor=none;fillColor=none;html=1;fontSize=24;fontStyle=1;verticalAlign=middle;align=center;" vertex="1" parent="1">
          <mxGeometry x="390" y="150" width="100" height="40" as="geometry" />
        </mxCell>
        <mxCell id="p6bUg2uWIaqTIdtSCgMk-19" value="日志" style="text;strokeColor=none;fillColor=none;html=1;fontSize=24;fontStyle=1;verticalAlign=middle;align=center;" vertex="1" parent="1">
          <mxGeometry x="499" y="250" width="100" height="40" as="geometry" />
        </mxCell>
        <mxCell id="p6bUg2uWIaqTIdtSCgMk-20" value="登录" style="text;strokeColor=none;fillColor=none;html=1;fontSize=24;fontStyle=1;verticalAlign=middle;align=center;" vertex="1" parent="1">
          <mxGeometry x="499" y="150" width="100" height="40" as="geometry" />
        </mxCell>
        <mxCell id="p6bUg2uWIaqTIdtSCgMk-21" value="路由" style="text;strokeColor=none;fillColor=none;html=1;fontSize=24;fontStyle=1;verticalAlign=middle;align=center;" vertex="1" parent="1">
          <mxGeometry x="499" y="450" width="100" height="58" as="geometry" />
        </mxCell>
        <mxCell id="p6bUg2uWIaqTIdtSCgMk-23" value="" style="verticalLabelPosition=bottom;aspect=fixed;html=1;verticalAlign=top;strokeColor=none;align=center;outlineConnect=0;shape=mxgraph.citrix.firewall;fontSize=24;" vertex="1" parent="1">
          <mxGeometry x="250" y="590" width="75" height="93" as="geometry" />
        </mxCell>
        <mxCell id="p6bUg2uWIaqTIdtSCgMk-40" value="" style="edgeStyle=none;rounded=0;orthogonalLoop=1;jettySize=auto;html=1;strokeColor=#000000;fontSize=24;" edge="1" parent="1" source="p6bUg2uWIaqTIdtSCgMk-27" target="p6bUg2uWIaqTIdtSCgMk-36">
          <mxGeometry relative="1" as="geometry" />
        </mxCell>
        <mxCell id="p6bUg2uWIaqTIdtSCgMk-27" value="" style="rounded=0;whiteSpace=wrap;html=1;fontSize=24;" vertex="1" parent="1">
          <mxGeometry x="670" y="326.5" width="220" height="620" as="geometry" />
        </mxCell>
        <mxCell id="p6bUg2uWIaqTIdtSCgMk-28" value="" style="verticalLabelPosition=bottom;aspect=fixed;html=1;verticalAlign=top;strokeColor=none;align=center;outlineConnect=0;shape=mxgraph.citrix.license_server;fontSize=24;" vertex="1" parent="1">
          <mxGeometry x="747.5" y="410" width="65" height="85" as="geometry" />
        </mxCell>
        <mxCell id="p6bUg2uWIaqTIdtSCgMk-29" value="" style="verticalLabelPosition=bottom;aspect=fixed;html=1;verticalAlign=top;strokeColor=none;align=center;outlineConnect=0;shape=mxgraph.citrix.license_server;fontSize=24;" vertex="1" parent="1">
          <mxGeometry x="750" y="756.5" width="65" height="85" as="geometry" />
        </mxCell>
        <mxCell id="p6bUg2uWIaqTIdtSCgMk-32" value="移动端服务" style="text;strokeColor=none;fillColor=none;html=1;fontSize=24;fontStyle=1;verticalAlign=middle;align=center;" vertex="1" parent="1">
          <mxGeometry x="730" y="510" width="100" height="40" as="geometry" />
        </mxCell>
        <mxCell id="p6bUg2uWIaqTIdtSCgMk-33" value="管理端服务" style="text;strokeColor=none;fillColor=none;html=1;fontSize=24;fontStyle=1;verticalAlign=middle;align=center;" vertex="1" parent="1">
          <mxGeometry x="732.5" y="849" width="100" height="40" as="geometry" />
        </mxCell>
        <mxCell id="p6bUg2uWIaqTIdtSCgMk-35" style="edgeStyle=none;shape=link;rounded=0;orthogonalLoop=1;jettySize=auto;html=1;exitX=1;exitY=1;exitDx=0;exitDy=0;strokeColor=#000000;fontSize=24;" edge="1" parent="1">
          <mxGeometry relative="1" as="geometry">
            <mxPoint x="1170" y="517.5" as="sourcePoint" />
            <mxPoint x="1170" y="517.5" as="targetPoint" />
          </mxGeometry>
        </mxCell>
        <mxCell id="p6bUg2uWIaqTIdtSCgMk-43" value="" style="edgeStyle=none;rounded=0;orthogonalLoop=1;jettySize=auto;html=1;strokeColor=#000000;fontSize=24;" edge="1" parent="1" source="p6bUg2uWIaqTIdtSCgMk-36" target="p6bUg2uWIaqTIdtSCgMk-42">
          <mxGeometry relative="1" as="geometry" />
        </mxCell>
        <mxCell id="p6bUg2uWIaqTIdtSCgMk-36" value="" style="rounded=0;whiteSpace=wrap;html=1;fontSize=24;" vertex="1" parent="1">
          <mxGeometry x="950" y="257.5" width="270" height="750" as="geometry" />
        </mxCell>
        <mxCell id="p6bUg2uWIaqTIdtSCgMk-37" value="" style="verticalLabelPosition=bottom;aspect=fixed;html=1;verticalAlign=top;strokeColor=none;align=center;outlineConnect=0;shape=mxgraph.citrix.license_server;fontSize=24;" vertex="1" parent="1">
          <mxGeometry x="1052.5" y="357.5" width="65" height="85" as="geometry" />
        </mxCell>
        <mxCell id="p6bUg2uWIaqTIdtSCgMk-38" value="" style="verticalLabelPosition=bottom;aspect=fixed;html=1;verticalAlign=top;strokeColor=none;align=center;outlineConnect=0;shape=mxgraph.citrix.license_server;fontSize=24;" vertex="1" parent="1">
          <mxGeometry x="1052" y="576" width="65" height="85" as="geometry" />
        </mxCell>
        <mxCell id="p6bUg2uWIaqTIdtSCgMk-39" value="" style="verticalLabelPosition=bottom;aspect=fixed;html=1;verticalAlign=top;strokeColor=none;align=center;outlineConnect=0;shape=mxgraph.citrix.license_server;fontSize=24;" vertex="1" parent="1">
          <mxGeometry x="1052" y="822.5" width="65" height="85" as="geometry" />
        </mxCell>
        <mxCell id="p6bUg2uWIaqTIdtSCgMk-62" value="" style="edgeStyle=none;rounded=0;orthogonalLoop=1;jettySize=auto;html=1;strokeColor=#000000;fontSize=24;" edge="1" parent="1" source="p6bUg2uWIaqTIdtSCgMk-42">
          <mxGeometry relative="1" as="geometry">
            <mxPoint x="1426" y="635" as="targetPoint" />
          </mxGeometry>
        </mxCell>
        <mxCell id="p6bUg2uWIaqTIdtSCgMk-42" value="" style="verticalLabelPosition=bottom;aspect=fixed;html=1;verticalAlign=top;strokeColor=none;align=center;outlineConnect=0;shape=mxgraph.citrix.license_server;fontSize=24;" vertex="1" parent="1">
          <mxGeometry x="1260" y="587.5" width="65" height="85" as="geometry" />
        </mxCell>
        <mxCell id="p6bUg2uWIaqTIdtSCgMk-44" value="" style="verticalLabelPosition=bottom;aspect=fixed;html=1;verticalAlign=top;strokeColor=none;align=center;outlineConnect=0;shape=mxgraph.citrix.firewall;fontSize=24;" vertex="1" parent="1">
          <mxGeometry x="1340" y="605" width="60" height="74.41" as="geometry" />
        </mxCell>
        <mxCell id="p6bUg2uWIaqTIdtSCgMk-50" value="" style="edgeStyle=none;rounded=0;orthogonalLoop=1;jettySize=auto;html=1;strokeColor=#000000;fontSize=24;" edge="1" parent="1" target="p6bUg2uWIaqTIdtSCgMk-46">
          <mxGeometry relative="1" as="geometry">
            <mxPoint x="1515" y="633.2375886524824" as="sourcePoint" />
          </mxGeometry>
        </mxCell>
        <mxCell id="p6bUg2uWIaqTIdtSCgMk-46" value="" style="whiteSpace=wrap;html=1;aspect=fixed;fontSize=24;" vertex="1" parent="1">
          <mxGeometry x="1610" y="587.75" width="97.5" height="97.5" as="geometry" />
        </mxCell>
        <mxCell id="p6bUg2uWIaqTIdtSCgMk-51" value="HIS系统" style="text;strokeColor=none;fillColor=none;html=1;fontSize=24;fontStyle=1;verticalAlign=middle;align=center;" vertex="1" parent="1">
          <mxGeometry x="1610" y="616.5" width="100" height="40" as="geometry" />
        </mxCell>
        <mxCell id="p6bUg2uWIaqTIdtSCgMk-53" value="用户服务" style="text;strokeColor=none;fillColor=none;html=1;fontSize=24;fontStyle=1;verticalAlign=middle;align=center;" vertex="1" parent="1">
          <mxGeometry x="1034.5" y="441.5" width="100" height="40" as="geometry" />
        </mxCell>
        <mxCell id="p6bUg2uWIaqTIdtSCgMk-54" value="通用服务" style="text;strokeColor=none;fillColor=none;html=1;fontSize=24;fontStyle=1;verticalAlign=middle;align=center;" vertex="1" parent="1">
          <mxGeometry x="1034.5" y="668.5" width="100" height="40" as="geometry" />
        </mxCell>
        <mxCell id="p6bUg2uWIaqTIdtSCgMk-55" value="订单服务" style="text;strokeColor=none;fillColor=none;html=1;fontSize=24;fontStyle=1;verticalAlign=middle;align=center;" vertex="1" parent="1">
          <mxGeometry x="1035" y="916" width="100" height="40" as="geometry" />
        </mxCell>
        <mxCell id="p6bUg2uWIaqTIdtSCgMk-56" value="前置机中间件" style="text;strokeColor=none;fillColor=none;html=1;fontSize=24;fontStyle=1;verticalAlign=middle;align=center;" vertex="1" parent="1">
          <mxGeometry x="1250" y="683" width="100" height="40" as="geometry" />
        </mxCell>
        <mxCell id="p6bUg2uWIaqTIdtSCgMk-57" style="edgeStyle=none;rounded=0;orthogonalLoop=1;jettySize=auto;html=1;exitX=0.5;exitY=1;exitDx=0;exitDy=0;strokeColor=#000000;fontSize=24;" edge="1" parent="1" source="p6bUg2uWIaqTIdtSCgMk-32" target="p6bUg2uWIaqTIdtSCgMk-32">
          <mxGeometry relative="1" as="geometry" />
        </mxCell>
        <mxCell id="p6bUg2uWIaqTIdtSCgMk-61" value="" style="rounded=0;whiteSpace=wrap;html=1;fontSize=24;" vertex="1" parent="1">
          <mxGeometry x="1430" y="190" width="150" height="860" as="geometry" />
        </mxCell>
        <mxCell id="p6bUg2uWIaqTIdtSCgMk-63" value="" style="verticalLabelPosition=bottom;aspect=fixed;html=1;verticalAlign=top;strokeColor=none;align=center;outlineConnect=0;shape=mxgraph.citrix.license_server;fontSize=24;" vertex="1" parent="1">
          <mxGeometry x="1470" y="265.96" width="70" height="91.54" as="geometry" />
        </mxCell>
        <mxCell id="p6bUg2uWIaqTIdtSCgMk-64" value="" style="verticalLabelPosition=bottom;aspect=fixed;html=1;verticalAlign=top;strokeColor=none;align=center;outlineConnect=0;shape=mxgraph.citrix.license_server;fontSize=24;" vertex="1" parent="1">
          <mxGeometry x="1472.5" y="380" width="65" height="85" as="geometry" />
        </mxCell>
        <mxCell id="p6bUg2uWIaqTIdtSCgMk-65" value="前置机" style="text;strokeColor=none;fillColor=none;html=1;fontSize=24;fontStyle=1;verticalAlign=middle;align=center;" vertex="1" parent="1">
          <mxGeometry x="1455" y="200" width="100" height="40" as="geometry" />
        </mxCell>
        <mxCell id="p6bUg2uWIaqTIdtSCgMk-66" value="" style="verticalLabelPosition=bottom;aspect=fixed;html=1;verticalAlign=top;strokeColor=none;align=center;outlineConnect=0;shape=mxgraph.citrix.license_server;fontSize=24;" vertex="1" parent="1">
          <mxGeometry x="1472.5" y="495" width="65" height="85" as="geometry" />
        </mxCell>
        <mxCell id="p6bUg2uWIaqTIdtSCgMk-67" value="" style="verticalLabelPosition=bottom;aspect=fixed;html=1;verticalAlign=top;strokeColor=none;align=center;outlineConnect=0;shape=mxgraph.citrix.license_server;fontSize=24;" vertex="1" parent="1">
          <mxGeometry x="1475" y="607.5" width="65" height="85" as="geometry" />
        </mxCell>
        <mxCell id="p6bUg2uWIaqTIdtSCgMk-68" value="" style="verticalLabelPosition=bottom;aspect=fixed;html=1;verticalAlign=top;strokeColor=none;align=center;outlineConnect=0;shape=mxgraph.citrix.license_server;fontSize=24;" vertex="1" parent="1">
          <mxGeometry x="1472.5" y="723" width="65" height="85" as="geometry" />
        </mxCell>
        <mxCell id="p6bUg2uWIaqTIdtSCgMk-69" value="" style="verticalLabelPosition=bottom;aspect=fixed;html=1;verticalAlign=top;strokeColor=none;align=center;outlineConnect=0;shape=mxgraph.citrix.license_server;fontSize=24;" vertex="1" parent="1">
          <mxGeometry x="1472.5" y="849" width="65" height="85" as="geometry" />
        </mxCell>
        <mxCell id="p6bUg2uWIaqTIdtSCgMk-70" value="......" style="text;strokeColor=none;fillColor=none;html=1;fontSize=24;fontStyle=1;verticalAlign=middle;align=center;" vertex="1" parent="1">
          <mxGeometry x="1450" y="980" width="100" height="40" as="geometry" />
        </mxCell>
      </root>
    </mxGraphModel>
  </diagram>
</mxfile>
